<?xml version="1.0" encoding="UTF-8"?>
<!DOCTYPE svg PUBLIC "-//W3C//DTD SVG 1.1//EN" "http://www.w3.org/Graphics/SVG/1.1/DTD/svg11.dtd">
<!-- Creator: CorelDRAW X7 -->
<svg xmlns="http://www.w3.org/2000/svg" xml:space="preserve" width="297mm" height="210mm" version="1.1" shape-rendering="geometricPrecision" text-rendering="geometricPrecision" image-rendering="optimizeQuality" fill-rule="evenodd" clip-rule="evenodd"
viewBox="0 0 29700 21000"
 xmlns:xlink="http://www.w3.org/1999/xlink">
 <g id="Ebene_x0020_1">
  <metadata id="CorelCorpID_0Corel-Layer"/>
  <path fill="none" fill-rule="nonzero" stroke="red" stroke-width="7.62" d="M16719 10396l0 -458 -388 0 0 -882 388 0 0 -458m0 0l0 -423 388 0c1141,0 1309,0 2433,0l388 0 0 423m0 0l0 458 388 0 0 882 -388 0 0 458m0 0l-388 0 0 388 -811 0 0 -388 -776 0 0 388 -846 0 0 -388 -388 0"/>
  <path fill="none" fill-rule="nonzero" stroke="red" stroke-width="7.62" d="M1458 984l0 -660 811 0 0 388c1054,0 1345,0 2398,0l0 -388 811 0 0 388c1588,0 2386,0 3985,0l0 -388 812 0 0 388c1064,0 1318,0 2398,0l0 -388 811 0 0 660 -12026 0z"/>
  <path fill="none" fill-rule="nonzero" stroke="red" stroke-width="7.62" d="M12362 10914l0 660 -811 0 0 -388c-1054,0 -1345,0 -2398,0l0 388 -811 0 0 -388c-1588,0 -2386,0 -3985,0l0 388 -812 0 0 -388c-1064,0 -1318,0 -2398,0l0 388 -811 0 0 -660 12026 0z"/>
  <path fill="none" stroke="black" stroke-width="7.62" d="M921 9001l100 0c55,0 100,45 100,100l0 50c0,55 -45,100 -100,100l-100 0c-55,0 -100,-45 -100,-100l0 -50c0,-55 45,-100 100,-100z"/>
  <rect fill="none" stroke="black" stroke-width="7.62" x="3090" y="1709" width="776" height="380"/>
  <rect fill="none" stroke="black" stroke-width="7.62" x="3195" y="9729" width="776" height="380"/>
  <rect fill="none" stroke="black" stroke-width="7.62" x="6263" y="1709" width="811" height="380"/>
  <rect fill="none" stroke="black" stroke-width="7.62" x="6369" y="9729" width="811" height="380"/>
  <rect fill="none" stroke="black" stroke-width="7.62" x="11095" y="1709" width="776" height="380"/>
  <rect fill="none" stroke="black" stroke-width="7.62" x="11200" y="9729" width="776" height="380"/>
  <rect fill="none" stroke="black" stroke-width="7.62" x="14269" y="1709" width="776" height="380"/>
  <rect fill="none" stroke="black" stroke-width="7.62" x="14374" y="9729" width="776" height="380"/>
  <path fill="none" stroke="black" stroke-width="7.62" d="M3271 5514l700 0c82,0 150,68 150,150l0 1200c0,83 -68,150 -150,150l-700 0c-83,0 -150,-67 -150,-150l0 -1200c0,-82 67,-150 150,-150z"/>
  <polygon fill="none" stroke="red" stroke-width="7.62" points="20048,278 16028,278 16028,887 19267,890 19267,3487 20048,3487 "/>
  <polyline fill="none" fill-rule="nonzero" stroke="red" stroke-width="7.62" points="233,8501 1044,8501 1044,8113 1890,8113 1890,8501 2701,8501 2701,8113 3548,8113 3548,8501 4359,8501 4359,8113 5241,8113 5241,8501 6016,8501 6016,8113 6898,8113 6898,8501 7709,8501 7709,8113 8556,8113 8556,8501 9367,8501 9367,8113 10213,8113 10213,8501 11024,8501 11024,8113 11871,8113 11871,8501 12682,8501 12682,8113 13528,8113 13528,8501 14339,8501 14339,8113 15185,8113 15185,8501 16032,8501 "/>
  <polyline fill="none" fill-rule="nonzero" stroke="red" stroke-width="7.62" points="16032,8501 16032,8995 15609,8995 15609,9841 16032,9841 16032,10300 "/>
  <path fill="none" fill-rule="nonzero" stroke="red" stroke-width="7.62" d="M16032 10300l0 423 -847 0c-4161,0 -8322,0 -12484,0 0,-141 0,-282 0,-423 -270,0 -540,0 -811,0l0 423 -846 0 0 -423 -811 0"/>
  <polyline fill="none" fill-rule="nonzero" stroke="red" stroke-width="7.62" points="233,10300 233,9841 621,9841 621,8995 233,8995 233,8501 "/>
  <polyline fill="none" fill-rule="nonzero" stroke="red" stroke-width="7.62" points="16032,3917 16032,4728 15609,4728 15609,5504 16032,5504 16032,6315 15609,6315 15609,7091 16032,7091 16032,7902 "/>
  <path fill="none" fill-rule="nonzero" stroke="red" stroke-width="7.62" d="M233 7902l0 -811 388 0 0 -776 -388 0 0 -811 388 0 0 -776 -388 0 0 -811m15799 3985l-847 0 0 -388 -811 0 0 388 -846 0 0 -388 -811 0 0 388 -882 0 0 -388 -776 0 0 388 -881 0 0 -388 -811 0 0 388 -847 0 0 -388 -811 0 0 388 -846 0 0 -388 -811 0 0 388 -847 0 0 -388 -811 0 0 388 -846 0 0 -388 -811 0 0 388 -847 0 0 -388 -811 0 0 388 -846 0m0 -3985l846 0 0 388 811 0 0 -388 847 0 0 388 811 0 0 -388 846 0 0 388 811 0 0 -388 847 0 0 388 811 0 0 -388 846 0 0 388 811 0 0 -388 847 0 0 388 811 0 0 -388 881 0 0 388 776 0 0 -388 882 0 0 388 811 0 0 -388 846 0 0 388 811 0 0 -388 847 0"/>
  <path fill="none" fill-rule="nonzero" stroke="red" stroke-width="7.62" d="M19161 1416l0 3209 -83 0 0 388 -846 0 0 -388 -811 0 0 388 -847 0m0 0l0 -812 388 0 0 -775 -388 0 0 -811 388 0 0 -776 -388 0 0 -811m0 0l847 0 0 388 811 0 0 -388 846 0 0 388 83 0"/>
  <polyline fill="none" fill-rule="nonzero" stroke="red" stroke-width="7.62" points="233,1519 1044,1519 1044,1096 1890,1096 1890,1519 2701,1519 2701,1096 15185,1096 16032,1096 16032,1519 "/>
  <polyline fill="none" fill-rule="nonzero" stroke="red" stroke-width="7.62" points="16032,1519 16032,1977 15609,1977 15609,2824 16032,2824 16032,3317 "/>
  <polyline fill="none" fill-rule="nonzero" stroke="red" stroke-width="7.62" points="16032,3317 15185,3317 15185,3705 14339,3705 14339,3317 13528,3317 13528,3705 12682,3705 12682,3317 11871,3317 11871,3705 11024,3705 11024,3317 10213,3317 10213,3705 9367,3705 9367,3317 8556,3317 8556,3705 7709,3705 7709,3317 6898,3317 6898,3705 6016,3705 6016,3317 5241,3317 5241,3705 4359,3705 4359,3317 3548,3317 3548,3705 2701,3705 2701,3317 1890,3317 1890,3705 1044,3705 1044,3317 233,3317 "/>
  <polyline fill="none" fill-rule="nonzero" stroke="red" stroke-width="7.62" points="233,3317 233,2824 621,2824 621,1977 233,1977 233,1519 "/>
  <path fill="none" fill-rule="nonzero" stroke="red" stroke-width="7.62" d="M19931 7567l-388 0 0 388 -846 0 0 -388 -776 0 0 388 -811 0 0 -388 -388 0m0 0l0 -459 -388 0 0 -881 388 0 0 -459m3209 0l0 459 388 0 0 881 -388 0 0 459m-3209 -1799l388 0 0 -388 846 0 0 388 776 0 0 -388 811 0 0 388 388 0"/>
  <path fill="none" stroke="black" stroke-width="7.62" d="M18540 6861l0 312c0,82 -68,150 -150,150l-140 0c-101,58 -231,93 -373,93 -142,0 -272,-35 -373,-93l-140 0c-83,0 -150,-68 -150,-150l0 -312c0,-83 67,-150 150,-150l140 0c101,-58 231,-94 373,-94 142,0 272,36 373,94l140 0c82,0 150,67 150,150z"/>
 </g>
</svg>
